# xmcd
#
# Track frame offsets: 
#        150
#        26544
#        46089
#        62016
#        80058
#        95392
#        112818
#        122306
#        137565
#        152830
#        170656
#
# Disc length: 2515 seconds
#
# Revision: 0
# Processed by: cddbd v1.5.2PL0 Copyright (c) Steve Scherf et al.
# Submitted via: ExactAudioCopyFreeDBPlugin 1.0
#
DISCID=8109d10b
DTITLE=Lera Lynn - The Avenues
DYEAR=2014
DGENRE=Acoustic
TTITLE0=Out To Sea
TTITLE1=Standing On The Moon
TTITLE2=La Di Da
TTITLE3=Letters
TTITLE4=Refrain
TTITLE5=Comin' Down
TTITLE6=Empty Pages
TTITLE7=I'm Your Fool
TTITLE8=Leave It Up To Me
TTITLE9=Hooked On You
TTITLE10=Sailor Song
EXTD=
EXTT0=
EXTT1=
EXTT2=
EXTT3=
EXTT4=
EXTT5=
EXTT6=
EXTT7=
EXTT8=
EXTT9=
EXTT10=
PLAYORDER=
